# xmcd
#
# Track frame offsets: 
#        182
#        14112
#        26187
#        38075
#        52525
#        68135
#        88022
#        103170
#        115357
#        125410
#        143320
#        153830
#        166047
#        180662
#        196425
#        209125
#        220967
#        237415
#        250747
#        260815
#
# Disc length: 3695 seconds
#
# Revision: 1
# Processed by: cddbd v1.5.2PL0 Copyright (c) Steve Scherf et al.
# Submitted via: ExactAudioCopy v0.99pb5
#
DISCID=1f0e6d14
DTITLE=Various Artist - Easy Listening Country 4
DYEAR=1900
DGENRE=Country
TTITLE0=Charley Pride - Green, Green Grass Of Home
TTITLE1=Willie Nelson - Funny How Time Slips Away
TTITLE2=Skeeter Davis - End Of The World
TTITLE3=Chet Atkins - For The Good Times
TTITLE4=Bobby Goldsboro - Autumn Of My Life
TTITLE5=Glen Campbell - Amazing Grace
TTITLE6=Jessi Colter - I'm Not Lisa
TTITLE7=Bill Anderson - My Life
TTITLE8=The Browns - Send Me The Pillow You Dream On
TTITLE9=Bobby Goldsboro - Honey
TTITLE10=Danny Davis - Columbus Stockade Blues
TTITLE11=Bobby Goldsboro - By The Time I Get To Phoenix
TTITLE12=George Strait - Does Ft. Worth Ever Cross Your Mind
TTITLE13=Crystal Gayle - I'll Get Over You
TTITLE14=Mel Tillis - Detroit City
TTITLE15=Eddy Arnold - Wichita Lineman
TTITLE16=Kathy Mattea - Love At The Five and Dime
TTITLE17=Glen Campbell - Gentle On My Mind
TTITLE18=George Hamilton IV - Abilene
TTITLE19=Steve Wariner - Small Town Girl
EXTD=
EXTT0=
EXTT1=
EXTT2=
EXTT3=
EXTT4=
EXTT5=
EXTT6=
EXTT7=
EXTT8=
EXTT9=
EXTT10=
EXTT11=
EXTT12=
EXTT13=
EXTT14=
EXTT15=
EXTT16=
EXTT17=
EXTT18=
EXTT19=
PLAYORDER=
